<svg xmlns="http://www.w3.org/2000/svg" viewBox="0 0 32 32">
  <rect width="32" height="32" rx="7" fill="#1F4D36"/>
  <path d="M16 24V10" stroke="#F7C948" stroke-width="1.6" stroke-linecap="round"/>
  <path d="M16 10c-2 0-4 1.4-4 3.4 2 0 3-1 4-1.4" fill="none" stroke="#F7C948" stroke-width="1.6" stroke-linecap="round" stroke-linejoin="round"/>
  <path d="M16 10c2 0 4 1.4 4 3.4-2 0-3-1-4-1.4" fill="none" stroke="#F7C948" stroke-width="1.6" stroke-linecap="round" stroke-linejoin="round"/>
  <path d="M16 14c-2 0-4 1.4-4 3.4 2 0 3-1 4-1.4" fill="none" stroke="#F7C948" stroke-width="1.6" stroke-linecap="round" stroke-linejoin="round"/>
  <path d="M16 14c2 0 4 1.4 4 3.4-2 0-3-1-4-1.4" fill="none" stroke="#F7C948" stroke-width="1.6" stroke-linecap="round" stroke-linejoin="round"/>
  <path d="M16 18c-2 0-4 1.4-4 3.4 2 0 3-1 4-1.4" fill="none" stroke="#F7C948" stroke-width="1.6" stroke-linecap="round" stroke-linejoin="round"/>
  <path d="M16 18c2 0 4 1.4 4 3.4-2 0-3-1-4-1.4" fill="none" stroke="#F7C948" stroke-width="1.6" stroke-linecap="round" stroke-linejoin="round"/>
</svg>
